<svg width="200" height="200" viewBox="0 0 200 200" xmlns="http://www.w3.org/2000/svg">
  <!-- Background -->
  <rect width="200" height="200" fill="#ffffff" rx="20"/>
  
  <!-- GitHub Logo -->
  <path fill="#181717" d="M100 30c-27.6 0-50 22.4-50 50 0 22.1 14.3 40.8 34.2 47.4 2.5.5 3.4-1.1 3.4-2.4 0-1.2 0-4.4-.1-8.6-13.9 3-16.8-6.7-16.8-6.7-2.3-5.8-5.6-7.3-5.6-7.3-4.5-3.1.3-3 .3-3 5 .4 7.7 5.2 7.7 5.2 4.5 7.7 11.8 5.5 14.6 4.2.5-3.3 1.7-5.5 3.2-6.7-11.2-1.3-23-5.6-23-25 0-5.5 2-10 5.2-13.5-.5-1.3-2.3-6.4.5-13.4 0 0 4.2-1.4 13.8 5.2 4-1.1 8.3-1.7 12.5-1.7s8.5.6 12.5 1.7c9.5-6.6 13.8-5.2 13.8-5.2 2.7 7 1 12.1.5 13.4 3.2 3.5 5.2 8 5.2 13.5 0 19.4-11.8 23.7-23.1 25 1.8 1.5 3.4 4.6 3.4 9.3 0 6.7-.1 12.1-.1 13.7 0 1.3.9 2.9 3.5 2.4 19.8-6.6 34.1-25.3 34.1-47.4 0-27.6-22.4-50-50-50z"/>
</svg>
